# xmcd
#
# Track frame offsets: 
#        150
#        19568
#        32477
#        47592
#        67931
#        76404
#        98449
#        111551
#        135522
#        162846
#        182552
#        201311
#        217013
#
# Disc length: 2991 seconds
#
# Revision: 0
# Processed by: cddbd v1.5.2PL0 Copyright (c) Steve Scherf et al.
# Submitted via: ExactAudioCopyFreeDBPlugin 1.0
#
DISCID=a50bad0d
DTITLE=John Mooney - Son and Moon
DYEAR=2014
DGENRE=Blues
TTITLE0=Death Letter
TTITLE1=Dry Spell Blues
TTITLE2=Grinnin' In Your Face
TTITLE3=Good Morning Little School Girl
TTITLE4=Pearline
TTITLE5=Sacred Ground
TTITLE6=Wish I Was In Heaven
TTITLE7=John The Revelator
TTITLE8=Preachin' Blues
TTITLE9=Louise McGee
TTITLE10=Jinx Blues
TTITLE11=You Gotta Move
TTITLE12=That's All
EXTD=
EXTT0=
EXTT1=
EXTT2=
EXTT3=
EXTT4=
EXTT5=
EXTT6=
EXTT7=
EXTT8=
EXTT9=
EXTT10=
EXTT11=
EXTT12=
PLAYORDER=
